# xmcd
#
# Track frame offsets:
#	150
#	9838
#	21706
#	31881
#	42123
#	54472
#	64564
#	76021
#	87214
#	98290
#	109776
#	121058
#	132664
#	142104
#	152455
#	161866
#	172321
#	182580
#	193417
#	204248
#	214622
#	224492
#	233759
#	245321
#	257533
#
# Disc length: 3589 seconds
#
# Revision: 1
# Processed by: cddbd v1.5.1PL0 Copyright (c) Steve Scherf et al.
# Submitted via: audiograbber 1.83.01
#
DISCID=510e0319
DTITLE=Various Artist - Double Up and Catch Up
DYEAR=1900
DGENRE=
TTITLE0=Faron Young - I'm Gonna Live Some
TTITLE1=Jean Sheppard - Sad Singing And Slow Ridin'
TTITLE2=Tommy Collins - That's The Way love Is
TTITLE3=Dick Curless - Travelin' Man
TTITLE4=Ferlin Husky - I'll Baby Sit With You
TTITLE5=Tabby West - I Can't Stop Loving You
TTITLE6=Wyn Stewart - That Just Kills Me
TTITLE7=Skeets McDonald - Smoke Comes Out My Chimney
TTITLE8=Louvin Brothers - Plenty Of Everything But You
TTITLE9=Hank Thompson - How Cold Hearted Can You Get
TTITLE10=Merle Travis - Turn My Picture Upside Down
TTITLE11=Ferlin Husky - I Feel Better All Over
TTITLE12=Del Reeves and Chester Smith - Love Love Love
TTITLE13=Roy Hogsed - Its More Fun That Way
TTITLE14=Owen Perry - All Dressed Up With No Place To Go
TTITLE15=Jerry Reed - Honey Chile
TTITLE16=Skeets McDonald - Look Who's Crying Now
TTITLE17=Cousin Herb Henson and Tradfing Post Gang - How Come Y'all Come
TTITLE18=Leon Chappel - Double Up And Catch Up
TTITLE19=Milo Twins - Pretty Mama Boogie
TTITLE20=Jerry Reed - I'm A Lover Not A Fighter
TTITLE21=Faron Young - Go Back You Fool
TTITLE22=Tommy Collins - I'll Be Gone
TTITLE23=Louvin Brothers - I Wonder Where You Are Tonight
TTITLE24=Jimmy Bryant - Bryant's Boogie
EXTD=
EXTT0=
EXTT1=
EXTT2=
EXTT3=
EXTT4=
EXTT5=
EXTT6=
EXTT7=
EXTT8=
EXTT9=
EXTT10=
EXTT11=
EXTT12=
EXTT13=
EXTT14=
EXTT15=
EXTT16=
EXTT17=
EXTT18=
EXTT19=
EXTT20=
EXTT21=
EXTT22=
EXTT23=
EXTT24=
PLAYORDER=
